<svg xmlns="http://www.w3.org/2000/svg"  viewBox="0 0 100 100" width="100px" height="100px" baseProfile="basic"><circle cx="78" cy="14" r="1" fill="#f1bc19"/><circle cx="50" cy="50" r="38" fill="#f9dbd2"/><circle cx="84" cy="16" r="4" fill="#f1bc19"/><circle cx="14" cy="26" r="2" fill="#ee3e54"/><circle cx="78" cy="77" r="2" fill="#fbcd59"/><circle cx="17" cy="78" r="4" fill="#fbcd59"/><circle cx="24" cy="83" r="2" fill="#ee3e54"/><circle cx="66.483" cy="78.517" r="2.483" fill="#fff"/><circle cx="16" cy="48" r="1" fill="#fff"/><circle cx="86" cy="31" r="1" fill="#f1bc19"/><circle cx="80" cy="66" r="2" fill="#fff"/><g><circle cx="50" cy="50" r="23.958" fill="#ee3e54"/><path fill="#472b29" d="M50,26.4c13.013,0,23.6,10.587,23.6,23.6S63.013,73.6,50,73.6S26.4,63.013,26.4,50 S36.987,26.4,50,26.4 M50,25c-13.807,0-25,11.193-25,25s11.193,25,25,25s25-11.193,25-25S63.807,25,50,25L50,25z"/></g><path fill="#fdfcef" d="M50.537,34.786c-10.436,0-15.977,7.006-15.977,14.632c0,3.547,1.888,7.962,4.908,9.368	c0.457,0.213,0.703,0.121,0.808-0.323c0.081-0.337,0.488-1.979,0.671-2.742c0.059-0.244,0.03-0.453-0.167-0.693	c-1-1.213-1.8-3.441-1.8-5.518c0-5.333,4.038-10.494,10.917-10.494c5.94,0,10.099,4.048,10.099,9.837	c0,6.541-3.303,11.072-7.601,11.072c-2.373,0-4.15-1.963-3.58-4.371c0.684-2.874,2.003-5.974,2.003-8.05	c0-1.856-0.995-3.406-3.059-3.406c-2.426,0-4.375,2.509-4.375,5.872c0,2.14,0.724,3.589,0.724,3.589s-2.397,10.133-2.836,12.019	c-0.486,2.082-0.297,5.007-0.086,6.919l0,0c0.545,0.214,1.091,0.428,1.655,0.602l0,0c0.988-1.605,2.46-4.238,3.006-6.338	c0.295-1.132,1.507-5.748,1.507-5.748c0.788,1.504,3.09,2.777,5.541,2.777c7.292,0,12.547-6.706,12.547-15.04	C65.443,40.762,58.925,34.786,50.537,34.786z"/><path fill="#472b29" d="M42.842,73.6c-0.049,0-0.099-0.007-0.147-0.022c-0.576-0.178-1.133-0.396-1.69-0.614	c-0.173-0.068-0.294-0.226-0.314-0.411c-0.228-2.069-0.396-4.979,0.096-7.088c0.406-1.743,2.484-10.535,2.796-11.854	c-0.198-0.462-0.697-1.811-0.697-3.64c0-3.573,2.141-6.372,4.875-6.372c2.162,0,3.559,1.533,3.559,3.905	c0,1.402-0.548,3.178-1.129,5.058c-0.317,1.026-0.645,2.087-0.888,3.108c-0.225,0.951-0.04,1.866,0.521,2.576	c0.593,0.75,1.53,1.179,2.572,1.179c4.115,0,7.101-4.446,7.101-10.572c0-5.498-3.947-9.337-9.599-9.337	c-6.766,0-10.417,5.149-10.417,9.994c0,1.859,0.693,3.997,1.685,5.2c0.281,0.342,0.368,0.711,0.268,1.128l-0.671,2.742	c-0.085,0.36-0.26,0.607-0.519,0.732c-0.407,0.197-0.844-0.005-0.987-0.072c-3.253-1.514-5.198-6.183-5.198-9.821	c0-7.288,5.156-15.132,16.477-15.132c8.783,0,15.407,6.219,15.407,14.465c0,8.859-5.609,15.54-13.047,15.54	c-2.077,0-4.137-0.854-5.325-2.129c-0.375,1.427-1.033,3.933-1.239,4.727c-0.585,2.25-2.171,5.021-3.064,6.474	C43.175,73.513,43.012,73.6,42.842,73.6z M41.652,72.143c0.32,0.125,0.642,0.248,0.969,0.359c0.883-1.465,2.232-3.9,2.743-5.865	c0.295-1.132,1.508-5.75,1.508-5.75c0.052-0.2,0.222-0.347,0.427-0.37c0.202-0.028,0.403,0.082,0.499,0.265	c0.637,1.216,2.641,2.509,5.098,2.509c6.868,0,12.047-6.25,12.047-14.54c0-7.676-6.193-13.465-14.407-13.465	c-10.634,0-15.477,7.326-15.477,14.132c0,3.253,1.766,7.586,4.62,8.915c0.042,0.02,0.077,0.033,0.104,0.042	c0.002-0.008,0.005-0.018,0.007-0.028l0.671-2.744c0.024-0.101,0.025-0.146-0.067-0.259c-1.126-1.365-1.913-3.765-1.913-5.835	c0-5.33,4.001-10.994,11.417-10.994c6.24,0,10.599,4.251,10.599,10.337c0,6.706-3.407,11.572-8.101,11.572	c-1.35,0-2.573-0.568-3.356-1.559c-0.755-0.955-1.007-2.172-0.71-3.427c0.25-1.053,0.583-2.13,0.905-3.172	c0.558-1.806,1.084-3.512,1.084-4.763c0-0.682-0.185-2.905-2.559-2.905c-2.173,0-3.875,2.359-3.875,5.372	c0,1.984,0.665,3.353,0.671,3.367c0.052,0.104,0.065,0.224,0.039,0.337c0,0-2.396,10.132-2.835,12.017	C41.323,67.566,41.45,70.178,41.652,72.143z"/><path fill="#472b29" d="M50,71c-0.498,0-0.991-0.017-1.48-0.051c-0.275-0.02-0.483-0.258-0.464-0.534	c0.02-0.276,0.262-0.482,0.534-0.464c2.002,0.14,4.069-0.023,6.026-0.486c0.27-0.061,0.538,0.103,0.602,0.372	c0.063,0.269-0.103,0.538-0.372,0.602C53.269,70.811,51.638,71,50,71z"/><path fill="#472b29" d="M58.016,69.373c-0.194,0-0.379-0.114-0.46-0.304c-0.108-0.254,0.01-0.548,0.264-0.656	C65.219,65.267,70,58.039,70,50c0-1.162-0.101-2.327-0.299-3.462c-0.047-0.272,0.135-0.531,0.407-0.579s0.531,0.135,0.579,0.407	C70.895,47.558,71,48.78,71,50c0,8.441-5.02,16.03-12.788,19.333C58.148,69.36,58.082,69.373,58.016,69.373z"/><path fill="#472b29" d="M37.91,67.057c-0.103,0-0.206-0.031-0.295-0.097C32.221,63.015,29,56.674,29,50	c0-11.58,9.42-21,21-21c9.261,0,17.548,6.2,20.153,15.078c0.078,0.265-0.074,0.542-0.339,0.621	c-0.263,0.078-0.543-0.074-0.621-0.339C66.713,35.904,58.82,30,50,30c-11.028,0-20,8.972-20,20c0,6.357,3.067,12.396,8.206,16.154	c0.223,0.163,0.271,0.476,0.108,0.699C38.216,66.986,38.064,67.057,37.91,67.057z"/></svg>